<?xml version="1.0" encoding="UTF-8" standalone="no"?>
<svg
   xmlns:dc="http://purl.org/dc/elements/1.1/"
   xmlns:cc="http://creativecommons.org/ns#"
   xmlns:rdf="http://www.w3.org/1999/02/22-rdf-syntax-ns#"
   xmlns:svg="http://www.w3.org/2000/svg"
   xmlns="http://www.w3.org/2000/svg"
   xmlns:xlink="http://www.w3.org/1999/xlink"
   version="1.1"
   id="svg5019"
   viewBox="0 0 800.00001 800.00001"
   height="800"
   width="800">
  <defs
     id="defs5021">
    <linearGradient
       id="linearGradient6418">
      <stop
         id="stop6420"
         offset="0"
         style="stop-color:#000000;stop-opacity:1;" />
      <stop
         id="stop6422"
         offset="1"
         style="stop-color:#000000;stop-opacity:0;" />
    </linearGradient>
    <mask
       id="mask6410"
       maskUnits="userSpaceOnUse">
      <circle
         style="color:#000000;clip-rule:nonzero;display:inline;overflow:visible;visibility:visible;opacity:1;isolation:auto;mix-blend-mode:normal;color-interpolation:sRGB;color-interpolation-filters:linearRGB;solid-color:#000000;solid-opacity:1;fill:#ffffff;fill-opacity:1;fill-rule:evenodd;stroke:none;stroke-width:1.58500004;stroke-linecap:butt;stroke-miterlimit:10;stroke-dasharray:none;stroke-dashoffset:0;stroke-opacity:1;color-rendering:auto;image-rendering:auto;shape-rendering:auto;text-rendering:auto;enable-background:accumulate"
         id="circle6412"
         cx="400"
         cy="652.36218"
         r="400" />
    </mask>
    <mask
       id="mask6414"
       maskUnits="userSpaceOnUse">
      <circle
         style="color:#000000;clip-rule:nonzero;display:inline;overflow:visible;visibility:visible;opacity:1;isolation:auto;mix-blend-mode:normal;color-interpolation:sRGB;color-interpolation-filters:linearRGB;solid-color:#000000;solid-opacity:1;fill:#ffffff;fill-opacity:1;fill-rule:evenodd;stroke:none;stroke-width:1.58500004;stroke-linecap:butt;stroke-miterlimit:10;stroke-dasharray:none;stroke-dashoffset:0;stroke-opacity:1;color-rendering:auto;image-rendering:auto;shape-rendering:auto;text-rendering:auto;enable-background:accumulate"
         id="circle6416"
         cx="400"
         cy="400.00003"
         r="400" />
    </mask>
    <linearGradient
       gradientUnits="userSpaceOnUse"
       y2="685.73114"
       x2="143.67633"
       y1="496.83264"
       x1="376.98694"
       id="linearGradient6424"
       xlink:href="#linearGradient6418" />
  </defs>
  <metadata
     id="metadata5024">
    <rdf:RDF>
      <cc:Work
         rdf:about="">
        <dc:format>image/svg+xml</dc:format>
        <dc:type
           rdf:resource="http://purl.org/dc/dcmitype/StillImage" />
        <dc:title></dc:title>
      </cc:Work>
    </rdf:RDF>
  </metadata>
  <g
     id="layer1"
     transform="translate(0,-252.36216)">
    <circle
       r="400"
       cy="652.36218"
       cx="400"
       id="circle6408"
       style="color:#000000;clip-rule:nonzero;display:inline;overflow:visible;visibility:visible;opacity:1;isolation:auto;mix-blend-mode:normal;color-interpolation:sRGB;color-interpolation-filters:linearRGB;solid-color:#000000;solid-opacity:1;fill:#1c8adb;fill-opacity:1;fill-rule:evenodd;stroke:none;stroke-width:1.58500004;stroke-linecap:butt;stroke-miterlimit:10;stroke-dasharray:none;stroke-dashoffset:0;stroke-opacity:1;color-rendering:auto;image-rendering:auto;shape-rendering:auto;text-rendering:auto;enable-background:accumulate" />
    <path
       mask="url(#mask6414)"
       id="path5592"
       transform="translate(0,252.36216)"
       d="m 397.01953,215.36914 c -5.00993,0 -9.67333,0.94934 -13.99219,2.84961 -4.31886,1.72761 -8.12003,4.23332 -11.40234,7.51563 L 28.484292,568.87509 c 0,0 50.531189,186.48547 270.030188,221.54286 l 205.78629,-205.78709 0,-37.57227 -77.48047,0 0,-222.5957 -53.11914,0 48.45508,-48.45703 c 3.28231,-3.28231 5.78606,-7.08348 7.51367,-11.40234 1.90027,-4.31887 2.85156,-8.8972 2.85156,-13.73438 0,-5.00984 -0.95129,-9.58826 -2.85156,-13.73437 -1.72761,-4.31895 -4.23136,-8.11809 -7.51367,-11.40039 -3.10957,-3.28231 -6.82371,-5.78802 -11.14258,-7.51563 -4.31895,-1.90027 -8.9843,-2.84961 -13.99414,-2.84961 z"
       style="font-style:normal;font-variant:normal;font-weight:normal;font-stretch:normal;font-size:medium;line-height:125%;font-family:Consolas;-inkscape-font-specification:Consolas;letter-spacing:0px;word-spacing:0px;fill:url(#linearGradient6424);fill-opacity:1;stroke:none;stroke-width:1;stroke-linecap:butt;stroke-linejoin:miter;stroke-opacity:1;opacity:0.42" />
    <path
       mask="url(#mask6410)"
       id="path5574"
       style="font-style:normal;font-variant:normal;font-weight:normal;font-stretch:normal;font-size:medium;line-height:125%;font-family:Consolas;-inkscape-font-specification:Consolas;letter-spacing:0px;word-spacing:0px;fill:#ffffff;fill-opacity:1;stroke:none;stroke-width:1px;stroke-linecap:butt;stroke-linejoin:miter;stroke-opacity:1"
       d="m 381.21289,614.14023 -76.9623,0 0,-37.31506 122.56959,0 0,222.59465 77.48066,0 0,37.57417 -208.6016,0 0,-37.57417 85.51365,0 0,-185.27959 z m 15.80712,-146.40984 q 7.51476,0 13.99318,2.85041 6.4783,2.59142 11.14265,7.51489 4.92346,4.92346 7.51488,11.40189 2.85041,6.21917 2.85041,13.73393 0,7.25577 -2.85041,13.73407 -2.59142,6.47829 -7.51488,11.40175 -4.66435,4.9236 -11.14265,7.77401 -6.47842,2.59129 -13.99318,2.59129 -7.51489,0 -13.99318,-2.59129 -6.47829,-2.85041 -11.40176,-7.77401 -4.66448,-4.92346 -7.51488,-11.40175 -2.59129,-6.4783 -2.59129,-13.73407 0,-7.51476 2.59129,-13.73393 2.8504,-6.47843 7.51488,-11.40189 4.92347,-4.92347 11.40176,-7.51489 6.47829,-2.85041 13.99318,-2.85041 z" />
  </g>
</svg>
